<?xml version="1.0" encoding="UTF-8"?>
<svg id="Layer_2" data-name="Layer 2" xmlns="http://www.w3.org/2000/svg" viewBox="0 0 408.46 209.62">
  <defs>
    <style>
      .cls-1 {
        fill: #fff;
      }

      .cls-2 {
        fill: #f3765e;
      }

      .cls-3 {
        fill: #2b2929;
      }
    </style>
  </defs>
  <g id="Layer_1-2" data-name="Layer 1">
    <g>
      <g>
        <path class="cls-3" d="M131.58,152.26c0,2.21-.52,4.07-1.55,5.59-1.03,1.52-2.34,2.75-3.93,3.69-1.59,.94-3.36,1.62-5.32,2.03-1.95,.42-3.85,.63-5.7,.63s-3.61-.18-5.51-.54c-1.9-.36-3.64-.97-5.23-1.82-1.59-.85-2.92-1.97-3.99-3.36-1.07-1.39-1.65-3.12-1.76-5.18,0-.32,.12-.6,.35-.81,.23-.22,.51-.33,.84-.33h7.21c.22,0,.41,.02,.57,.05,.16,.04,.31,.09,.46,.16,.25,.14,.56,.4,.92,.76,.58,1.16,1.44,1.94,2.58,2.36,1.14,.41,2.32,.62,3.55,.62,.54,0,1.17-.04,1.87-.11s1.36-.23,1.95-.46,1.11-.58,1.55-1.03c.43-.45,.65-1.04,.65-1.76,0-.98-.36-1.68-1.09-2.12-.72-.43-1.48-.78-2.28-1.03-.62-.22-1.35-.42-2.2-.63-.85-.2-1.84-.41-2.96-.62-1.66-.33-3.27-.75-4.83-1.27-1.55-.52-2.94-1.22-4.15-2.09-1.21-.87-2.19-1.96-2.93-3.28-.74-1.32-1.11-2.94-1.11-4.86,0-2.39,.66-4.44,1.98-6.16,1.32-1.72,3.05-3.03,5.18-3.93,2.31-.94,4.97-1.41,7.97-1.41,1.19,0,2.43,.1,3.72,.3s2.53,.52,3.74,.98c1.21,.45,2.34,1.05,3.39,1.79,1.05,.74,1.95,1.64,2.71,2.68,1.23,1.59,1.9,3.2,2.01,4.83,0,.29-.12,.56-.35,.81-.24,.25-.5,.38-.79,.38h-7.59c-.76,0-1.36-.33-1.79-.98-.22-.76-.78-1.41-1.68-1.95-.98-.51-2.1-.76-3.36-.76-.54,0-1.09,.04-1.65,.11s-1.08,.23-1.54,.49c-.47,.25-.85,.59-1.14,1-.29,.42-.43,.95-.43,1.6,0,1.01,.54,1.83,1.63,2.44,1.08,.58,3.11,1.17,6.08,1.79,1.7,.33,3.39,.72,5.07,1.17,1.68,.45,3.17,1.1,4.48,1.93s2.36,1.91,3.17,3.23,1.22,3.01,1.22,5.07Z"/>
        <path class="cls-3" d="M167.87,125.79c.94,0,1.41,.47,1.41,1.41v6.02c0,.43-.13,.76-.38,.98-.25,.25-.6,.38-1.03,.38h-12.53c.8,0,1.5,.29,2.12,.87,.62,.58,.92,1.23,.92,1.95v24.85c0,.43-.13,.77-.38,1-.25,.23-.6,.35-1.03,.35h-7.49c-.36,0-.69-.13-.98-.38-.29-.25-.43-.58-.43-.98v-25.98c0-.51-.17-.91-.51-1.22-.34-.31-.71-.46-1.11-.46h-7.87c-.43,0-.78-.13-1.03-.38-.25-.22-.38-.54-.38-.98v-2.77c0-1.41,.49-2.54,1.46-3.39,.98-.85,2.06-1.28,3.26-1.28h25.98Z"/>
        <path class="cls-3" d="M208.72,163.33c-.22,.22-.49,.33-.81,.33h-7.59c-1.05,0-1.79-.49-2.22-1.46l-5.48-10.85c-.32-.58-.81-.87-1.46-.87h-7.16c.94,0,1.67,.32,2.2,.98s.79,1.28,.79,1.9v8.95c0,.43-.13,.77-.38,1s-.6,.35-1.03,.35h-7.38c-.4,0-.72-.13-.98-.38-.25-.25-.38-.58-.38-.98v-31.74c0-1.34,.47-2.46,1.41-3.36,.94-.91,2.04-1.36,3.31-1.36h11.5c2.02,0,3.95,.23,5.78,.68,1.83,.45,3.43,1.17,4.8,2.14,1.37,.98,2.48,2.25,3.31,3.82,.83,1.57,1.25,3.48,1.25,5.72s-.46,4.22-1.38,5.91c-.92,1.7-2.38,3.09-4.37,4.18-.29,.22-.43,.45-.43,.71s.03,.45,.11,.6l6.78,12.31c.11,.22,.16,.42,.16,.6,0,.25-.11,.52-.33,.81Zm-11.01-25.17c0-1.48-.42-2.61-1.27-3.39s-2-1.17-3.44-1.17h-9.33c.87,0,1.57,.32,2.12,.95s.81,1.29,.81,1.98v4.34c0,.47,.16,.87,.49,1.19,.33,.32,.72,.49,1.19,.49h4.72c1.44,0,2.59-.36,3.44-1.09s1.27-1.83,1.27-3.31Z"/>
        <path class="cls-3" d="M217.02,162.3v-31.74c0-1.37,.47-2.5,1.41-3.39,.94-.89,2.04-1.33,3.31-1.33h22.13c.36,0,.69,.14,.98,.43s.43,.62,.43,.98v5.37c0,.4-.14,.71-.43,.92-.25,.25-.58,.38-.98,.38h-20.07c.87,0,1.58,.31,2.14,.92,.56,.62,.84,1.28,.84,2.01v2.28c0,.4,.14,.78,.43,1.14,.29,.36,.71,.54,1.25,.54h11.77c.94,0,1.41,.47,1.41,1.41v4.88c0,.94-.47,1.41-1.41,1.41h-16.44c.83,0,1.54,.29,2.12,.87,.58,.58,.87,1.23,.87,1.95v2.55c0,.4,.15,.78,.46,1.14,.31,.36,.71,.54,1.22,.54h15.84c.4,0,.73,.14,1,.41s.41,.61,.41,1v5.32c0,.4-.15,.72-.43,.98-.29,.25-.62,.38-.98,.38h-25.93c-.4,0-.72-.13-.98-.38-.25-.25-.38-.58-.38-.98Z"/>
        <path class="cls-3" d="M254.56,162.24v-31.74c0-1.26,.45-2.37,1.36-3.31,.9-.94,2.03-1.41,3.36-1.41h1.74c.43,0,.92,.08,1.46,.24,.54,.16,1.1,.64,1.68,1.44,2.13,3.33,4.05,6.33,5.75,9.01,1.05,1.63,1.87,2.92,2.47,3.88,.6,.96,1.16,1.85,1.68,2.66,.52,.81,.97,1.51,1.33,2.09,.36,.58,.58,.92,.65,1.03,.07,.07,.16,.11,.27,.11,.18,0,.27-.09,.27-.27v-15.46c0-.72,.14-1.37,.41-1.95,.27-.58,.62-1.07,1.06-1.46,.43-.4,.94-.71,1.52-.95,.58-.23,1.16-.35,1.74-.35h3.53c.4,0,.71,.13,.92,.38,.25,.25,.38,.6,.38,1.03v34.99c0,.4-.13,.72-.38,.98-.22,.29-.52,.43-.92,.43h-6.13c-.87,0-1.48-.34-1.85-1.03-2.17-3.33-4.12-6.31-5.86-8.95-1.09-1.59-1.94-2.86-2.55-3.82-.62-.96-1.18-1.84-1.71-2.66-.52-.82-.97-1.5-1.33-2.06-.36-.56-.58-.9-.65-1-.11-.11-.2-.16-.27-.16-.22,0-.33,.09-.33,.27v18.06c0,.43-.13,.77-.38,1-.25,.23-.6,.35-1.03,.35h-6.84c-.36,0-.68-.14-.95-.41-.27-.27-.41-.59-.41-.95Z"/>
        <path class="cls-3" d="M295.19,149.17c-.04-.51-.05-1.17-.05-1.98v-5.89c0-.83,.02-1.5,.05-2.01,.07-2.5,.57-4.65,1.49-6.46,.92-1.81,2.14-3.29,3.66-4.45,1.52-1.16,3.29-2.02,5.32-2.58s4.2-.84,6.51-.84c1.34,0,2.7,.11,4.09,.33,1.39,.22,2.75,.56,4.07,1.03,1.32,.47,2.56,1.09,3.72,1.85s2.17,1.68,3.04,2.77c1.37,1.73,2.08,3.53,2.12,5.37,0,.32-.12,.61-.35,.84s-.52,.35-.84,.35h-8.35c-.4,0-.67-.07-.81-.22-.25-.14-.45-.32-.6-.54-.22-.5-.5-.97-.84-1.38-.34-.42-.75-.82-1.22-1.22-1.01-.72-2.35-1.08-4.01-1.08-4.16,0-6.33,2.17-6.51,6.51-.04,.51-.05,1.14-.05,1.9v5.48c0,.8,.02,1.45,.05,1.95,.07,2.28,.65,3.99,1.73,5.13,1.09,1.14,2.99,1.71,5.7,1.71,.87,0,1.57-.03,2.12-.08,.54-.05,1-.14,1.38-.27,.38-.13,.71-.29,.98-.49,.27-.2,.57-.42,.9-.68,.8-.72,1.32-1.61,1.57-2.66,.14-.58,.37-1.07,.68-1.46,.31-.4,.65-.71,1.03-.95,.38-.24,.76-.41,1.14-.52s.7-.16,.95-.16h-9.6c-.43,0-.77-.14-1-.41s-.35-.61-.35-1v-.92c0-.54,.1-1.09,.3-1.65s.5-1.06,.9-1.49c.4-.43,.89-.8,1.46-1.08,.58-.29,1.25-.43,2.01-.43h8.03c1.34,0,2.31,.35,2.9,1.06s.9,1.65,.9,2.85v3.74c0,2.57-.47,4.78-1.41,6.65-.94,1.86-2.2,3.39-3.77,4.58-1.57,1.19-3.4,2.08-5.48,2.66-2.08,.58-4.26,.87-6.54,.87s-4.6-.29-6.65-.87c-2.04-.58-3.82-1.46-5.32-2.66-1.5-1.19-2.69-2.72-3.58-4.58s-1.36-4.06-1.44-6.59Z"/>
        <path class="cls-3" d="M366.42,125.79c.94,0,1.41,.47,1.41,1.41v6.02c0,.43-.13,.76-.38,.98-.25,.25-.6,.38-1.03,.38h-12.53c.8,0,1.5,.29,2.12,.87,.62,.58,.92,1.23,.92,1.95v24.85c0,.43-.13,.77-.38,1-.25,.23-.6,.35-1.03,.35h-7.49c-.36,0-.69-.13-.98-.38-.29-.25-.43-.58-.43-.98v-25.98c0-.51-.17-.91-.51-1.22-.34-.31-.71-.46-1.11-.46h-7.87c-.43,0-.78-.13-1.03-.38-.25-.22-.38-.54-.38-.98v-2.77c0-1.41,.49-2.54,1.46-3.39,.98-.85,2.06-1.28,3.26-1.28h25.98Z"/>
        <path class="cls-3" d="M375.42,162.4v-31.74c0-1.34,.47-2.46,1.41-3.36,.94-.9,2.04-1.36,3.31-1.36h4.01c.4,0,.73,.13,1,.41,.27,.27,.41,.61,.41,1v12.59c0,.62,.22,1.04,.65,1.27,.43,.24,.78,.35,1.03,.35,2.24,0,4.12-.16,5.62-.49,1.5-.32,2.96-.79,4.37-1.41,.29-.14,.54-.34,.76-.6,.22-.25,.32-.58,.32-.98v-7.43c0-.72,.14-1.37,.41-1.95,.27-.58,.63-1.07,1.09-1.46,.45-.4,.96-.72,1.52-.95s1.13-.35,1.71-.35h4.01c.4,0,.73,.13,1,.41s.41,.61,.41,1v35.04c0,.43-.13,.77-.38,1-.25,.24-.6,.35-1.03,.35h-7.32c-.36,0-.69-.13-.98-.38-.29-.25-.43-.58-.43-.98v-12.86c0-.54-.17-.93-.51-1.17-.34-.23-.72-.35-1.11-.35-.25,0-.43,.02-.54,.05-1.77,.51-3.55,.84-5.34,1-1.79,.16-3.37,.24-4.75,.24-.73,0-1.34,0-1.85-.03s-.9-.05-1.19-.08c.72,.11,1.33,.43,1.82,.98,.49,.54,.73,1.16,.73,1.84v10.36c0,.43-.13,.77-.38,1-.25,.24-.6,.35-1.03,.35h-7.38c-.4,0-.72-.13-.98-.38-.25-.25-.38-.58-.38-.98Z"/>
        <path class="cls-3" d="M128.76,171.1c.4,0,.73,.14,1,.41,.27,.27,.41,.61,.41,1v22.51c0,2.46-.43,4.59-1.28,6.4-.85,1.81-2,3.31-3.44,4.5-1.45,1.19-3.16,2.08-5.13,2.66-1.97,.58-4.06,.87-6.27,.87-1.95,0-3.86-.25-5.72-.76-1.86-.5-3.54-1.27-5.02-2.3-1.48-1.03-2.68-2.32-3.61-3.88-.92-1.55-1.4-3.4-1.44-5.53,0-.29,.11-.58,.32-.87,.22-.22,.49-.32,.81-.32h7.76c.47,0,.87,.11,1.19,.32,.25,.25,.49,.65,.71,1.19,.54,2.68,2.3,4.01,5.26,4.01,.98,0,1.81-.17,2.49-.51,.69-.34,1.24-.82,1.65-1.44s.72-1.32,.92-2.12c.2-.8,.3-1.64,.3-2.55v-12.31c0-.69,.29-1.35,.87-1.98,.58-.63,1.28-.95,2.12-.95h-20.34c-.4,0-.73-.13-.98-.41-.25-.27-.38-.59-.38-.95v-2.33c0-.58,.11-1.15,.32-1.71,.22-.56,.53-1.06,.95-1.49,.41-.43,.91-.79,1.49-1.06,.58-.27,1.23-.41,1.95-.41h23.06Z"/>
        <path class="cls-3" d="M155.78,209.62c-5.14,0-9.19-1.25-12.15-3.74-2.97-2.49-4.54-6.16-4.72-11.01-.04-1.01-.05-2.57-.05-4.67s.02-3.67,.05-4.72c.14-4.77,1.72-8.45,4.75-11.04,3.02-2.59,7.06-3.88,12.12-3.88s9.05,1.29,12.07,3.88c3.02,2.59,4.6,6.26,4.75,11.04,.07,2.1,.11,3.67,.11,4.72s-.04,2.64-.11,4.67c-.18,4.85-1.74,8.52-4.69,11.01-2.95,2.5-6.99,3.74-12.12,3.74Zm0-8.14c1.88,0,3.38-.57,4.5-1.71,1.12-1.14,1.72-2.88,1.79-5.23,.07-2.1,.11-3.6,.11-4.5s-.04-2.37-.11-4.4c-.07-2.35-.67-4.09-1.79-5.23-1.12-1.14-2.62-1.71-4.5-1.71s-3.44,.57-4.56,1.71c-1.12,1.14-1.72,2.88-1.79,5.23-.04,1.01-.05,2.48-.05,4.4s.02,3.45,.05,4.5c.07,2.35,.67,4.1,1.79,5.23,1.12,1.14,2.64,1.71,4.56,1.71Z"/>
        <path class="cls-3" d="M181.43,194.65v-18.77c0-.72,.14-1.37,.43-1.95,.29-.58,.66-1.07,1.11-1.47,.45-.4,.96-.71,1.52-.92s1.11-.32,1.65-.32h4.01c.4,0,.73,.13,1,.41s.41,.61,.41,1v21.92c0,2.06,.5,3.7,1.49,4.91,1,1.21,2.56,1.82,4.69,1.82s3.69-.62,4.66-1.85c.98-1.23,1.46-2.86,1.46-4.88v-18.66c0-.76,.15-1.43,.46-2.01,.31-.58,.69-1.07,1.14-1.46,.45-.4,.96-.7,1.52-.89s1.09-.3,1.6-.3h4.01c.4,0,.73,.13,1,.41s.41,.61,.41,1v22.02c0,2.57-.38,4.79-1.14,6.67-.76,1.88-1.85,3.43-3.28,4.64-1.43,1.21-3.14,2.12-5.13,2.71s-4.21,.9-6.67,.9-4.69-.29-6.7-.87c-2.01-.58-3.73-1.48-5.18-2.71-1.45-1.23-2.56-2.78-3.34-4.67s-1.17-4.11-1.17-6.67Z"/>
        <path class="cls-3" d="M255.75,208.64c-.22,.22-.49,.33-.81,.33h-7.59c-1.05,0-1.79-.49-2.22-1.46l-5.48-10.85c-.32-.58-.81-.87-1.46-.87h-7.16c.94,0,1.67,.32,2.2,.98,.52,.65,.79,1.28,.79,1.9v8.95c0,.43-.13,.77-.38,1s-.6,.35-1.03,.35h-7.38c-.4,0-.72-.13-.98-.38-.25-.25-.38-.58-.38-.98v-31.74c0-1.34,.47-2.46,1.41-3.36,.94-.91,2.04-1.36,3.31-1.36h11.5c2.02,0,3.95,.23,5.78,.68,1.83,.45,3.43,1.17,4.8,2.14,1.37,.98,2.48,2.25,3.31,3.82,.83,1.57,1.25,3.48,1.25,5.72s-.46,4.22-1.38,5.91c-.92,1.7-2.38,3.09-4.37,4.18-.29,.22-.43,.45-.43,.71s.03,.45,.11,.6l6.78,12.31c.11,.22,.16,.42,.16,.6,0,.25-.11,.52-.33,.81Zm-11.01-25.17c0-1.48-.42-2.61-1.27-3.39s-2-1.17-3.44-1.17h-9.33c.87,0,1.57,.32,2.12,.95s.81,1.29,.81,1.98v4.34c0,.47,.16,.87,.49,1.19,.33,.32,.72,.49,1.19,.49h4.72c1.44,0,2.59-.36,3.44-1.09s1.27-1.83,1.27-3.31Z"/>
        <path class="cls-3" d="M264.27,207.56v-31.74c0-1.26,.45-2.37,1.36-3.31,.9-.94,2.03-1.41,3.36-1.41h1.74c.43,0,.92,.08,1.46,.24,.54,.16,1.1,.64,1.68,1.44,2.13,3.33,4.05,6.33,5.75,9.01,1.05,1.63,1.87,2.92,2.47,3.88,.6,.96,1.16,1.85,1.68,2.66,.52,.81,.97,1.51,1.33,2.09,.36,.58,.58,.92,.65,1.03,.07,.07,.16,.11,.27,.11,.18,0,.27-.09,.27-.27v-15.46c0-.72,.14-1.37,.41-1.95,.27-.58,.62-1.07,1.06-1.46,.43-.4,.94-.71,1.52-.95,.58-.23,1.16-.35,1.74-.35h3.53c.4,0,.71,.13,.92,.38,.25,.25,.38,.6,.38,1.03v34.99c0,.4-.13,.72-.38,.98-.22,.29-.52,.43-.92,.43h-6.13c-.87,0-1.48-.34-1.85-1.03-2.17-3.33-4.12-6.31-5.86-8.95-1.09-1.59-1.94-2.86-2.55-3.82-.62-.96-1.18-1.84-1.71-2.66-.52-.82-.97-1.5-1.33-2.06-.36-.56-.58-.9-.65-1-.11-.11-.2-.16-.27-.16-.22,0-.33,.09-.33,.27v18.06c0,.43-.13,.77-.38,1-.25,.23-.6,.35-1.03,.35h-6.84c-.36,0-.68-.14-.95-.41-.27-.27-.41-.59-.41-.95Z"/>
        <path class="cls-3" d="M303.06,208.75c-.22-.29-.32-.56-.32-.82s.02-.41,.05-.49l12.59-34.61c.4-1.05,1.12-1.57,2.17-1.57h8.41c1.05,0,1.77,.52,2.17,1.57l12.59,34.61c.04,.07,.05,.23,.05,.49,0,.29-.12,.55-.35,.79-.23,.24-.5,.35-.79,.35h-7c-.91,0-1.52-.4-1.85-1.19l-2.82-7.65c-1.3,.51-2.62,.92-3.96,1.25-1.34,.33-2.63,.57-3.88,.73-1.25,.16-2.41,.27-3.5,.32-1.09,.05-2.03,.08-2.82,.08h-1.3c-.36,0-.63-.02-.82-.05,.69,.07,1.24,.42,1.65,1.06,.42,.63,.46,1.36,.14,2.2l-.76,2.06c-.33,.8-.94,1.19-1.85,1.19h-7c-.25,0-.52-.11-.81-.32Zm13.78-13.89c1.01-.07,2.06-.2,3.15-.38,.94-.14,1.93-.35,2.96-.62,1.03-.27,2.02-.66,2.96-1.17l-4.18-11.93-4.88,14.11Z"/>
        <path class="cls-3" d="M347.87,207.56v-31.79c0-.69,.14-1.32,.41-1.9,.27-.58,.62-1.07,1.06-1.46,.43-.4,.94-.71,1.52-.95,.58-.23,1.16-.35,1.73-.35h4.18c.43,0,.76,.13,.98,.38,.25,.25,.38,.58,.38,.98v26.31c0,.29,.14,.64,.43,1.06,.29,.42,.69,.63,1.19,.63h14.59c.36,0,.69,.13,.98,.38,.29,.25,.43,.58,.43,.98v5.75c0,.4-.14,.72-.43,.98-.29,.25-.62,.38-.98,.38h-25.12c-.36,0-.68-.14-.95-.41s-.41-.59-.41-.95Z"/>
      </g>
      <polygon class="cls-3" points="37.48 209.62 58.15 173.82 16.81 173.82 37.48 209.62"/>
      <polygon class="cls-1" points="52.26 173.82 39.57 199.13 50.31 173.42 52.26 173.82 52.26 173.82"/>
      <g>
        <path class="cls-3" d="M135.68,40.38L114.62,3.58c-.96-1.64-2.49-2.83-4.33-3.33-1.84-.5-3.76-.25-5.41,.69l-9.05,5.17-.99-1.72c-1.96-3.41-6.31-4.6-9.72-2.65l-15.07,8.65c-3.41,1.93-4.6,6.3-2.64,9.72l10.91,19.03c-30.52,18.34-48.61,50.16-48.73,85.7l-22.39-.08c-3.92-.02-7.13,3.16-7.14,7.09L0,149.22c-.02,2.64,1.42,4.94,3.54,6.19,1.06,.61,2.27,.96,3.55,.96l1.99,.02-.04,10.42c0,2.63,1.44,4.95,3.57,6.17,1.04,.62,2.24,.96,3.55,.98h.73l34.18,.12,6.92,.02h.58c1.9,.01,3.7-.73,5.04-2.06,1.36-1.34,2.11-3.14,2.11-5.04l.04-10.42h1.99c1.9,0,3.7-.73,5.05-2.07,1.36-1.35,2.1-3.13,2.1-5.03l.06-17.36c.02-3.93-3.16-7.13-7.09-7.15l-20.57-.08c.1-29.13,14.88-55.24,39.81-70.36l10.45,18.21c.61,1.09,1.51,1.99,2.59,2.61,.51,.32,1.11,.55,1.72,.72,1.84,.5,3.76,.25,5.41-.69l15.06-8.62c3.41-1.96,4.6-6.33,2.65-9.74l-1-1.72,9.05-5.2c1.65-.94,2.83-2.47,3.33-4.31,.52-1.84,.27-3.76-.69-5.41ZM67.85,127.92c1.11,0,2.17,.44,2.95,1.23,.79,.78,1.21,1.84,1.21,2.95l-.06,17.37c0,1.11-.44,2.16-1.22,2.95-.81,.78-1.85,1.2-2.98,1.2h-3.47l-14.49-.05c-.8,0-1.47,.65-1.47,1.47s.65,1.48,1.47,1.48l13.02,.04-.04,10.44c0,1.12-.44,2.15-1.23,2.94-.8,.78-1.84,1.22-2.95,1.2l-42.43-.13c-2.29-.02-4.16-1.9-4.16-4.18l.04-10.44,25.39,.09c.81,0,1.48-.67,1.48-1.47s-.65-1.48-1.48-1.48l-26.85-.1-3.47-.02c-2.3,0-4.16-1.87-4.16-4.17l.06-17.37c.02-2.3,1.88-4.16,4.18-4.16l60.66,.21Zm53.04-63.73l-15.09,8.63c-1.99,1.15-4.54,.44-5.69-1.56l-30.15-52.63c-1.13-1.99-.44-4.54,1.55-5.69l15.07-8.63c2.01-1.15,4.56-.46,5.71,1.55l8.07,14.09v.02s.03,.01,.04,.02l5.8,10.14s0,.04,.01,.05l.03,.05,4.08,7.13,10.37,18.11v.02l1.73,3.01c1.15,1.99,.46,4.54-1.53,5.69Zm12.65-19.17c-.31,1.08-1,1.98-1.96,2.53l-9.05,5.18-13.22-23.1-.5-.86-5.9-10.29-5.62-9.8,9.07-5.17c.96-.56,2.09-.71,3.16-.42,1.07,.28,1.97,.99,2.53,1.95l21.08,36.82c.56,.96,.69,2.09,.41,3.16Z"/>
        <path class="cls-1" d="M72.01,132.1l-.06,17.37c0,1.11-.44,2.16-1.22,2.95-.81,.78-1.85,1.2-2.98,1.2h-3.47l-14.49-.05c-.8,0-1.47,.65-1.47,1.47s.65,1.48,1.47,1.48l13.02,.04-.04,10.44c0,1.12-.44,2.15-1.23,2.94-.8,.78-1.84,1.22-2.95,1.2l-42.43-.13c-2.29-.02-4.16-1.9-4.16-4.18l.04-10.44,25.39,.09c.81,0,1.48-.67,1.48-1.47s-.65-1.48-1.48-1.48l-26.85-.1-3.47-.02c-2.3,0-4.16-1.87-4.16-4.17l.06-17.37c.02-2.3,1.88-4.16,4.18-4.16l60.66,.21c1.11,0,2.17,.44,2.95,1.23,.79,.78,1.21,1.84,1.21,2.95Z"/>
        <path class="cls-1" d="M122.42,58.5l-1.73-3.01v-.02l-10.37-18.11-4.08-7.13-.03-.05-5.84-10.21v-.02s-8.08-14.09-8.08-14.09c-1.15-2.01-3.7-2.7-5.71-1.55l-15.07,8.63c-1.99,1.15-2.68,3.7-1.55,5.69l30.15,52.63c1.15,2,3.7,2.71,5.69,1.56l15.09-8.63c1.99-1.15,2.68-3.7,1.53-5.69ZM90.15,25.84c-2.54,1.54-5.84,.74-7.39-1.8-1.54-2.54-.73-5.85,1.81-7.39,2.54-1.54,5.85-.73,7.39,1.81,1.54,2.53,.73,5.84-1.81,7.38Zm12.1,21.19c-2.54,1.54-5.85,.73-7.39-1.81-1.54-2.54-.73-5.84,1.81-7.39,2.54-1.54,5.85-.73,7.39,1.81,1.54,2.54,.73,5.85-1.81,7.39Z"/>
        <path class="cls-2" d="M106.21,30.18l-5.84-10.21s.02,.01,.03,.02l5.8,10.14s0,.04,.01,.05Z"/>
        <path class="cls-2" d="M133.54,45.03c-.31,1.07-1,1.97-1.96,2.53l-9.05,5.18-13.23-23.1-.5-.86-5.9-10.29-5.62-9.79,9.07-5.18c.96-.56,2.09-.71,3.16-.42,1.07,.29,1.97,1,2.53,1.96l21.08,36.82c.56,.96,.69,2.09,.4,3.16Z"/>
        <path class="cls-3" d="M102.25,47.03c-2.54,1.54-5.85,.73-7.39-1.81-1.54-2.54-.73-5.84,1.81-7.39,2.54-1.54,5.85-.73,7.39,1.81,1.54,2.54,.73,5.85-1.81,7.39Z"/>
        <path class="cls-3" d="M90.15,25.84c-2.54,1.54-5.84,.74-7.39-1.8-1.54-2.54-.73-5.85,1.81-7.39,2.54-1.54,5.85-.73,7.39,1.81,1.54,2.53,.73,5.84-1.81,7.38Z"/>
      </g>
    </g>
  </g>
</svg>