<?xml version="1.0" standalone="no"?>
<!DOCTYPE svg PUBLIC "-//W3C//DTD SVG 20010904//EN"
 "http://www.w3.org/TR/2001/REC-SVG-20010904/DTD/svg10.dtd">
<svg version="1.0" xmlns="http://www.w3.org/2000/svg"
 width="441.000000pt" height="441.000000pt" viewBox="0 0 441.000000 441.000000"
 preserveAspectRatio="xMidYMid meet">
<metadata>
Created by potrace 1.14, written by Peter Selinger 2001-2017
</metadata>
<g transform="translate(0.000000,441.000000) scale(0.100000,-0.100000)"
fill="#000000" stroke="none">
<path d="M1900 4403 c0 -5 -7 -55 -15 -113 -8 -58 -20 -196 -27 -307 l-12
-203 -471 0 c-525 0 -527 0 -604 -67 -23 -19 -54 -58 -69 -87 l-27 -51 0 -430
c0 -424 0 -431 22 -471 30 -56 112 -127 164 -143 24 -8 72 -16 107 -19 l62 -5
0 -228 c0 -204 2 -234 20 -282 37 -100 134 -173 244 -184 l52 -5 409 -709
c225 -390 412 -709 415 -709 3 0 187 316 410 703 l406 702 63 13 c82 16 120
35 166 80 77 77 79 87 85 367 l5 250 85 5 c122 8 195 54 248 154 l27 51 3 409
c3 362 1 414 -14 459 -22 66 -89 138 -157 168 -51 22 -60 23 -493 27 l-442 4
4 87 c8 156 25 334 43 439 l17 102 -363 0 c-200 0 -363 -3 -363 -7z m966 -752
l581 -6 35 -27 c68 -52 70 -66 66 -493 -3 -376 -3 -380 -26 -417 -13 -21 -40
-45 -66 -57 -41 -20 -58 -21 -429 -21 -374 0 -388 -1 -407 -20 -24 -24 -25
-48 -4 -78 15 -22 17 -22 290 -22 l274 0 0 -222 c0 -251 -8 -283 -71 -329
l-34 -24 -878 -3 c-574 -1 -892 1 -917 8 -51 14 -89 46 -111 94 -16 36 -19 68
-19 259 l0 217 520 0 c507 0 521 1 540 20 24 24 25 48 4 78 -15 22 -16 22
-362 23 -191 1 -485 4 -654 8 -347 7 -342 5 -385 91 -23 43 -23 50 -23 410 0
209 4 380 10 399 12 41 54 88 95 107 33 15 864 17 1971 5z m-117 -1848 c0 -5
-103 -213 -230 -463 -126 -250 -228 -450 -227 -444 2 7 88 215 192 463 l189
451 39 0 c21 0 38 -3 37 -7z"/>
</g>
</svg>
