<?xml version="1.0" standalone="no"?>
<!DOCTYPE svg PUBLIC "-//W3C//DTD SVG 20010904//EN"
 "http://www.w3.org/TR/2001/REC-SVG-20010904/DTD/svg10.dtd">
<svg version="1.0" xmlns="http://www.w3.org/2000/svg"
 width="850.000000pt" height="850.000000pt" viewBox="0 0 850.000000 850.000000"
 preserveAspectRatio="xMidYMid meet">
<metadata>
Created by potrace 1.14, written by Peter Selinger 2001-2017
</metadata>
<g transform="translate(0.000000,850.000000) scale(0.100000,-0.100000)"
fill="#000000" stroke="none">
<path d="M6878 8421 c-40 -21 -136 -75 -213 -119 l-140 -81 -36 58 c-43 69
-97 115 -158 136 -53 18 -135 20 -182 3 -62 -21 -683 -382 -719 -418 -59 -59
-75 -102 -75 -205 l0 -90 231 -404 232 -404 -87 -55 c-612 -384 -1115 -939
-1441 -1590 -253 -508 -388 -1037 -416 -1634 l-7 -147 -491 -3 -491 -3 -47
-27 c-25 -16 -62 -46 -82 -69 -65 -76 -66 -86 -66 -539 l0 -407 31 -62 c50
-99 126 -147 253 -158 l75 -6 3 -246 3 -246 30 -53 c48 -88 127 -140 224 -149
l56 -5 409 -709 c225 -390 412 -709 415 -709 3 0 188 317 411 704 l405 704 50
7 c76 11 140 42 186 92 71 77 73 88 79 363 l5 245 80 5 c130 9 208 60 259 169
20 44 21 64 24 444 3 454 1 471 -68 550 -23 26 -65 58 -97 74 l-57 27 -443 4
-443 4 5 52 c2 28 7 103 10 166 3 63 15 178 26 255 133 919 642 1724 1421
2246 65 44 121 79 126 79 5 0 103 -165 218 -366 115 -201 224 -383 242 -404
50 -60 121 -90 206 -89 39 0 85 6 102 12 17 7 176 95 353 196 263 151 330 193
366 234 85 94 96 211 32 331 l-34 65 190 108 c204 115 257 158 290 232 31 69
29 170 -5 237 -81 161 -866 1515 -897 1548 -55 58 -121 86 -208 86 -65 0 -80
-4 -145 -39z m-572 -132 c28 -13 53 -36 72 -67 17 -26 236 -407 488 -847 251
-440 517 -904 589 -1031 73 -127 138 -247 144 -267 14 -42 2 -100 -29 -140
-11 -14 -168 -110 -348 -213 -369 -211 -386 -217 -464 -171 -39 23 -57 50
-199 299 -86 150 -366 639 -623 1087 -500 874 -486 845 -452 924 7 18 24 42
37 54 23 21 595 352 654 379 43 19 82 17 131 -7z m-825 -4969 c20 -11 48 -36
60 -57 24 -38 24 -40 27 -398 2 -239 0 -377 -8 -411 -12 -55 -53 -104 -103
-123 -18 -7 -166 -11 -414 -11 -346 0 -388 -2 -405 -17 -22 -20 -23 -61 -1
-85 15 -17 37 -18 290 -18 l273 0 0 -222 c0 -251 -8 -283 -71 -329 l-34 -24
-880 -3 c-616 -2 -891 0 -918 8 -51 15 -104 64 -117 108 -5 20 -10 133 -10
250 l0 212 520 0 c507 0 521 1 540 20 24 24 25 48 6 76 -15 21 -24 21 -662 28
-525 6 -653 10 -675 21 -38 20 -77 70 -84 108 -3 18 -5 201 -3 407 3 370 3
375 26 412 12 20 42 46 65 58 l42 22 1249 -7 c1203 -6 1251 -7 1287 -25z
m-712 -1827 c0 -11 -458 -919 -458 -911 -1 3 83 206 185 450 102 244 188 449
191 456 5 13 83 17 82 5z"/>
<path d="M6112 7817 c-49 -19 -100 -63 -123 -109 -32 -62 -24 -162 17 -220 97
-139 304 -119 375 37 31 67 22 153 -23 217 -46 66 -171 104 -246 75z"/>
<path d="M6572 6959 c-126 -63 -161 -231 -70 -335 50 -57 99 -77 178 -72 106
6 176 64 199 168 38 171 -149 317 -307 239z"/>
<path d="M7881 1104 c0 -11 3 -14 6 -6 3 7 2 16 -1 19 -3 4 -6 -2 -5 -13z"/>
</g>
</svg>
